<?xml version="1.0" encoding="utf-8"?>
<!-- Generator: Adobe Illustrator 12.0.0, SVG Export Plug-In . SVG Version: 6.00 Build 51448)  -->
<!DOCTYPE svg PUBLIC "-//W3C//DTD SVG 1.1//EN" "http://www.w3.org/Graphics/SVG/1.1/DTD/svg11.dtd" [
	<!ENTITY ns_svg "http://www.w3.org/2000/svg">
	<!ENTITY ns_xlink "http://www.w3.org/1999/xlink">
]>
<svg  version="1.1" id="Ebene_1" xmlns="&ns_svg;" xmlns:xlink="&ns_xlink;" width="149.801" height="180.844"
	 viewBox="0 0 149.801 180.844" overflow="visible" enable-background="new 0 0 149.801 180.844" xml:space="preserve">
<g>
	<g>
		<g>
			<path fill="#00FFB1" d="M83.465,23.983l-14.462,0.052l-0.029-8.558l14.463-0.055L83.386,0.187l8.186-0.026l0.052,15.232
				l14.457-0.055l0.028,8.561l-14.457,0.054L91.7,38.991l-8.187,0.031L83.465,23.983z"/>
			<path fill="#00FFB1" d="M127.154,23.821l-14.46,0.054l-0.029-8.56l14.461-0.055l-0.051-15.23L135.261,0l0.052,15.232
				l14.461-0.051l0.027,8.556l-14.457,0.055l0.051,15.04l-8.186,0.03L127.154,23.821z"/>
		</g>
		<g>
			<path fill="#00FFB1" d="M30.199,73.509c-3.664,1.328-7.269,1.271-12.089,1.271c-2.296,0-10.863,1.157-12.075,0
				C1.611,70.526,11.54,35.117,18.11,31.85C27.425,45.737,29.252,59.636,30.199,73.509z"/>
			<path fill="#00FFB1" d="M28.986,78.562c2.058,6.521,0.456,13.043,6.628,19.572c-0.489,23.149-0.489,46.291,0,69.449
				c-1.19,1.262-2.409,2.516-3.601,3.783c-0.154,2.529,4.797,5.051,3.601,7.586c-9.459,3.013-24.115,1.806-35.613,0.621
				c-0.029-3.727,0.63-3.7,4.235-6.946c-1.41-1.464-2.831-2.941-4.235-4.405c0.496-23.59,0.496-47.154,0-70.727
				c6.034-5.668,5.218-11.361,5.439-17.046C13.279,77.625,21.138,81.379,28.986,78.562z"/>
		</g>
		<g>
			<path fill="#00FFB1" d="M76.056,73.509c-3.672,1.328-7.28,1.271-12.103,1.271c-2.293,0-10.859,1.157-12.071,0
				c-4.424-4.254,5.498-39.663,12.071-42.931C73.279,45.737,75.106,59.636,76.056,73.509z"/>
			<path fill="#00FFB1" d="M74.835,78.562c2.055,6.521,0.444,13.043,6.633,19.572c-0.495,23.149-0.495,46.291,0,69.449
				c-1.196,1.262-2.393,2.516-3.616,3.783c-0.146,2.529,4.813,5.051,3.616,7.586c-9.479,3.013-24.126,1.806-35.612,0.621
				c-0.028-3.727,0.629-3.7,4.219-6.946c-1.413-1.464-2.813-2.941-4.219-4.405c0.506-23.59,0.506-47.154,0-70.727
				c6.026-5.668,5.217-11.361,5.44-17.046C59.145,77.625,66.985,81.379,74.835,78.562z"/>
		</g>
		<g>
			<path fill="#00FFB1" d="M121.895,73.509c-3.666,1.328-7.263,1.271-12.073,1.271c-2.313,0-10.868,1.157-12.076,0
				c-4.441-4.254,5.496-39.663,12.076-42.931C119.121,45.737,120.954,59.636,121.895,73.509z"/>
			<path fill="#00FFB1" d="M120.697,78.562c2.055,6.521,0.453,13.043,6.633,19.572c-0.511,23.149-0.511,46.291,0,69.449
				c-1.213,1.262-2.425,2.516-3.612,3.783c-0.15,2.529,4.784,5.051,3.612,7.586c-9.482,3.013-24.137,1.806-35.628,0.621
				c-0.027-3.727,0.637-3.7,4.229-6.946c-1.414-1.464-2.825-2.941-4.229-4.405c0.503-23.59,0.503-47.154,0-70.727
				c6.042-5.668,5.217-11.361,5.428-17.046C104.989,77.625,112.85,81.379,120.697,78.562z"/>
		</g>
	</g>
</g>
</svg>
