<?xml version="1.0" encoding="utf-8"?>
<!-- Generator: Adobe Illustrator 12.0.0, SVG Export Plug-In . SVG Version: 6.00 Build 51448)  -->
<!DOCTYPE svg PUBLIC "-//W3C//DTD SVG 1.1//EN" "http://www.w3.org/Graphics/SVG/1.1/DTD/svg11.dtd" [
	<!ENTITY ns_svg "http://www.w3.org/2000/svg">
	<!ENTITY ns_xlink "http://www.w3.org/1999/xlink">
]>
<svg  version="1.1" id="Ebene_1" xmlns="&ns_svg;" xmlns:xlink="&ns_xlink;" width="208.524" height="82.84"
	 viewBox="0 0 208.524 82.84" overflow="visible" enable-background="new 0 0 208.524 82.84" xml:space="preserve">
<g>
	<polygon fill="#330A2A" points="27.063,78.1 73.462,63.335 89.643,66.847 76.067,77.689 	"/>
	<polygon fill="#330A2A" points="0,17.711 65.508,8.772 86.336,17.243 65.646,28.582 	"/>
</g>
<g>
	<g>
		<path fill="#330A2A" d="M145.127,29.089c0,0-3.379,4.422-3.059,5.407c0.108,0.333,0.335,0.434,0.335,0.434
			s22.88-0.35,30.825,3.017c2.099,0.889,2.384,0.96,2.384,0.96S171.024,30.049,145.127,29.089z M146.45,0l1.7,9.207l-27.659-0.718
			c0,0-0.001,0-0.002,0L97.81,7.897l18.15,15.828l-32.582,6.124L1.06,45.318l79.245,10.563l36.219,4.828l-16.199,17.433
			l24.887-2.126c0.002-0.001,0.003-0.001,0.005-0.002l8.435-0.72l15.787-1.349l-0.885,8.895c0,0,59.996-28.227,59.971-42.966
			C208.504,24.341,146.45,0,146.45,0z M174.438,51.464c-12.762,8.409-31.587,7.256-36.709,7.362
			c-5.123,0.107-12.272-29.772,0.747-36.282c0,0,15.399-0.648,26.145,3.095c15.012,5.229,22.09,14.727,22.09,14.727
			S180.592,47.409,174.438,51.464z M194.316,39.304c1.035-9.007-24.031-18.087-50.228-25.069
			C170.285,21.216,195.352,30.296,194.316,39.304z"/>
	</g>
</g>
</svg>
