<?xml version="1.0" encoding="utf-8"?>
<!-- Generator: Adobe Illustrator 12.0.0, SVG Export Plug-In . SVG Version: 6.00 Build 51448)  -->
<!DOCTYPE svg PUBLIC "-//W3C//DTD SVG 1.1//EN" "http://www.w3.org/Graphics/SVG/1.1/DTD/svg11.dtd" [
	<!ENTITY ns_svg "http://www.w3.org/2000/svg">
	<!ENTITY ns_xlink "http://www.w3.org/1999/xlink">
]>
<svg  version="1.1" id="Ebene_1" xmlns="&ns_svg;" xmlns:xlink="&ns_xlink;" width="276.132" height="151.507"
	 viewBox="0 0 276.132 151.507" overflow="visible" enable-background="new 0 0 276.132 151.507" xml:space="preserve">
<g>
	<polygon fill="#00FFB1" points="93.003,106.1 125.401,94.669 141.582,98.182 142.007,105.689 	"/>
	<polygon fill="#00FFB1" points="65.939,45.711 131.447,36.772 111.035,52.253 131.586,56.582 	"/>
</g>
<g>
	<g>
		<path fill="#00FFB1" d="M214.057,27.333l1.699,9.207l-20.721-2.286c0,0-6.938,1.568-2.274,5.235l-22.393,20.097l-7.469,8.139
			l-13.198-7.139L68.667,72.652l79.245,10.563l36.219,4.828l-20.531-0.9l24.887-2.127c4.335,18.334,12.771,17.613,12.772,17.611l0,0
			l15.787-1.348l-0.885,8.895c0,0,59.995-28.227,59.971-42.966C276.11,51.674,214.057,27.333,214.057,27.333z M242.045,78.797
			c-12.763,8.41-31.587,7.256-36.709,7.363c-5.123,0.107-12.271-29.772,0.747-36.283c0,0,15.398-0.648,26.146,3.095
			c15.012,5.229,22.09,14.727,22.09,14.727S248.198,74.742,242.045,78.797z M261.923,66.638c1.035-9.007-24.03-18.087-50.229-25.069
			C237.892,48.549,262.959,57.629,261.923,66.638z M212.733,56.422c0,0-3.379,4.422-3.06,5.407c0.107,0.333,0.335,0.434,0.335,0.434
			s22.881-0.35,30.825,3.017c2.1,0.889,2.384,0.96,2.384,0.96S238.631,57.382,212.733,56.422z"/>
	</g>
</g>
<g>
	<polygon fill="#00FFB1" points="57.335,72.1 103.734,57.334 119.915,60.847 106.339,71.689 	"/>
	<polygon fill="#00FFB1" points="3.439,22.044 68.947,13.105 89.775,21.576 69.085,32.915 	"/>
</g>
<g>
	<g>
		<path fill="#00FFB1" d="M145.39,0l1.699,9.207l-27.658-0.718c0,0-0.001,0-0.003,0L96.749,7.897l18.15,15.828l-32.582,6.124
			L0,45.318l79.245,10.563l36.219,4.828L99.265,78.143l24.887-2.127c0.002,0,0.003,0,0.005-0.002l8.436-0.72l15.787-1.349
			l-0.885,8.894c0,0,59.995-28.226,59.97-42.965C207.443,24.341,145.39,0,145.39,0z M173.378,51.464
			c-12.763,8.409-31.587,7.256-36.709,7.362c-5.123,0.107-12.271-29.772,0.747-36.282c0,0,15.399-0.648,26.146,3.095
			c15.012,5.229,22.09,14.727,22.09,14.727S179.531,47.409,173.378,51.464z M193.255,39.304c1.035-9.007-24.03-18.087-50.228-25.069
			C169.225,21.216,194.292,30.296,193.255,39.304z M144.066,29.089c0,0-3.379,4.422-3.06,5.407c0.107,0.333,0.335,0.434,0.335,0.434
			s22.881-0.35,30.825,3.017c2.1,0.889,2.385,0.96,2.385,0.96S169.963,30.049,144.066,29.089z"/>
	</g>
</g>
<g>
	<polygon fill="#00FFB1" points="41.002,148.1 87.401,133.334 103.582,136.848 90.006,147.689 	"/>
	<polygon fill="#00FFB1" points="13.939,87.711 79.447,78.771 115.608,84.242 94.919,95.582 	"/>
</g>
<g>
	<g>
		<path fill="#00FFB1" d="M163.057,68.667l1.699,9.207l-27.658-0.719c0,0-0.001,0-0.003,0l-22.679-0.593l18.149,15.828
			l-32.582,6.125l-82.317,15.469l79.245,10.563l36.219,4.828l-16.198,17.435l24.887-2.127c0.002,0,0.003,0,0.005-0.002l8.436-0.722
			l15.787-1.349l-0.885,8.896c0,0,59.995-28.228,59.97-42.967C225.11,93.007,163.057,68.667,163.057,68.667z M191.045,120.13
			c-12.763,8.41-31.587,7.256-36.709,7.363c-5.123,0.106-12.271-29.772,0.747-36.283c0,0,15.398-0.647,26.146,3.097
			c15.012,5.229,22.09,14.727,22.09,14.727S197.198,116.075,191.045,120.13z M210.922,107.971
			c1.035-9.007-24.029-18.087-50.228-25.068C186.892,89.882,211.959,98.962,210.922,107.971z M161.733,97.755
			c0,0-3.379,4.422-3.06,5.408c0.107,0.332,0.335,0.435,0.335,0.435s22.881-0.351,30.825,3.018c2.1,0.889,2.385,0.959,2.385,0.959
			S187.631,98.716,161.733,97.755z"/>
	</g>
</g>
</svg>
