<?xml version="1.0" encoding="utf-8"?>
<!-- Generator: Adobe Illustrator 12.0.0, SVG Export Plug-In . SVG Version: 6.00 Build 51448)  -->
<!DOCTYPE svg PUBLIC "-//W3C//DTD SVG 1.1//EN" "http://www.w3.org/Graphics/SVG/1.1/DTD/svg11.dtd" [
	<!ENTITY ns_svg "http://www.w3.org/2000/svg">
	<!ENTITY ns_xlink "http://www.w3.org/1999/xlink">
]>
<svg  version="1.1" id="Ebene_1" xmlns="&ns_svg;" xmlns:xlink="&ns_xlink;" width="254.08" height="131.941"
	 viewBox="0 0 254.08 131.941" overflow="visible" enable-background="new 0 0 254.08 131.941" xml:space="preserve">
<g>
	<polygon fill="#00FFB1" points="19.276,17.876 67.955,18.994 80.535,27.561 64.172,33.401 	"/>
	<polygon fill="#00FFB1" points="8.44,116.312 73.948,107.373 94.776,115.844 74.086,127.183 	"/>
</g>
<g>
	<g>
		<path fill="#00FFB1" d="M145.391,49.101l1.699,9.207l-27.658-0.718c0,0-0.001,0-0.003,0L96.75,56.998l18.15,15.829L82.318,78.95
			L0,94.419l79.245,10.563l36.219,4.828l-16.198,17.434l24.887-2.127c0.002,0,0.003,0,0.005-0.002l8.435-0.72l15.787-1.349
			l-0.885,8.895c0,0,59.996-28.227,59.971-42.966C207.444,73.442,145.391,49.101,145.391,49.101z M173.378,100.565
			c-12.762,8.409-31.587,7.256-36.709,7.362c-5.123,0.107-12.271-29.772,0.747-36.282c0,0,15.399-0.648,26.146,3.096
			c15.012,5.229,22.09,14.727,22.09,14.727S179.532,96.51,173.378,100.565z M193.256,88.406c1.035-9.008-24.03-18.088-50.228-25.07
			C169.226,70.317,194.292,79.397,193.256,88.406z M144.067,78.19c0,0-3.379,4.422-3.06,5.407c0.108,0.333,0.335,0.435,0.335,0.435
			s22.881-0.351,30.825,3.017c2.1,0.889,2.384,0.96,2.384,0.96S169.964,79.15,144.067,78.19z"/>
	</g>
</g>
<g>
	<polygon fill="#00FFB1" points="23.357,64.014 71.158,54.742 86.821,60.111 72.077,69.301 	"/>
	<polygon fill="#00FFB1" points="59.332,0 125.374,3.088 144.321,15.196 121.917,22.595 	"/>
</g>
<g>
	<g>
		<path fill="#00FFB1" d="M196.533,5.734l0.717,9.335l-27.427-3.636c0,0-0.002,0-0.004,0l-22.488-2.985l16.376,17.657l-33.046,2.648
			l-83.493,6.686l77.686,18.875l35.506,8.627l-10.158-1.42l20.625,12.125c0.002,0.001-0.252,2.127-0.25,2.125l5.274,3.483
			l15.841,0.326l-1.818,8.752c0,0,62.642-21.73,64.174-36.39C255.668,36.494,196.533,5.734,196.533,5.734z M218.927,59.866
			c-13.578,7.014-32.176,3.878-37.281,3.443c-5.105-0.434-9.058-30.901,4.576-36c0,0,15.382,0.982,25.672,5.84
			c14.376,6.786,20.411,16.979,20.411,16.979S225.476,56.484,218.927,59.866z M239.979,49.875
			c1.98-8.848-21.985-20.525-47.298-30.235C217.993,29.349,241.96,41.026,239.979,49.875z M192.145,34.52
			c0,0-3.827,4.04-3.614,5.054c0.073,0.343,0.287,0.467,0.287,0.467s22.791,2.069,30.334,6.257c1.994,1.105,2.27,1.207,2.27,1.207
			S217.795,38.21,192.145,34.52z"/>
	</g>
</g>
</svg>
