<?xml version="1.0" encoding="utf-8"?>
<!-- Generator: Adobe Illustrator 12.0.0, SVG Export Plug-In . SVG Version: 6.00 Build 51448)  -->
<!DOCTYPE svg PUBLIC "-//W3C//DTD SVG 1.1//EN" "http://www.w3.org/Graphics/SVG/1.1/DTD/svg11.dtd" [
	<!ENTITY ns_svg "http://www.w3.org/2000/svg">
	<!ENTITY ns_xlink "http://www.w3.org/1999/xlink">
]>
<svg  version="1.1" id="Ebene_1" xmlns="&ns_svg;" xmlns:xlink="&ns_xlink;" width="500.961" height="450.814"
	 viewBox="0 0 500.961 450.814" overflow="visible" enable-background="new 0 0 500.961 450.814" xml:space="preserve">
<path fill="none" stroke="#7AFFD2" stroke-width="3" d="M414.922,239.77c-0.007-0.03-0.014-0.061-0.021-0.091
	c-8.674-36.846-29.307-69.079-57.577-92.377"/>
<path fill="none" stroke="#7AFFD2" stroke-width="3" d="M159.938,424.218c25.918,15.918,56.42,25.097,89.065,25.097
	c36.932,0,71.119-11.747,99.031-31.708"/>
<path fill="none" stroke="#7AFFD2" stroke-width="3" d="M130.314,156.491c-24.128,23.808-41.787,55.397-48.625,90.356"/>
<g>
	<g>
		<g>
			<path fill="#7AFFD2" d="M109.423,290.644l-10.459,0.037l-0.021-6.188l10.459-0.039l-0.037-11.02l5.92-0.02l0.037,11.016
				l10.455-0.039l0.021,6.19l-10.455,0.039l0.035,10.876l-5.92,0.021L109.423,290.644z"/>
			<path fill="#7AFFD2" d="M141.018,290.526l-10.458,0.039l-0.021-6.19l10.458-0.039l-0.037-11.015l5.92-0.021l0.037,11.016
				l10.458-0.037l0.02,6.188l-10.455,0.039l0.037,10.877l-5.92,0.021L141.018,290.526z"/>
		</g>
		<g>
			<path fill="#7AFFD2" d="M70.903,326.459c-2.65,0.96-5.257,0.919-8.743,0.919c-1.66,0-7.855,0.837-8.732,0
				c-3.199-3.076,3.981-28.683,8.732-31.046C68.897,306.375,70.218,316.426,70.903,326.459z"/>
			<path fill="#7AFFD2" d="M70.026,330.112c1.487,4.717,0.329,9.433,4.792,14.153c-0.353,16.741-0.353,33.478,0,50.225
				c-0.86,0.912-1.742,1.818-2.603,2.734c-0.112,1.829,3.469,3.653,2.603,5.486c-6.839,2.179-17.439,1.306-25.754,0.449
				c-0.021-2.695,0.456-2.676,3.063-5.023c-1.02-1.059-2.047-2.127-3.063-3.186c0.359-17.061,0.359-34.102,0-51.147
				c4.364-4.099,3.774-8.216,3.934-12.327C58.667,329.436,64.35,332.15,70.026,330.112z"/>
		</g>
		<g>
			<path fill="#7AFFD2" d="M104.065,326.459c-2.656,0.96-5.265,0.919-8.752,0.919c-1.658,0-7.854,0.837-8.73,0
				c-3.199-3.076,3.975-28.683,8.73-31.046C102.057,306.375,103.378,316.426,104.065,326.459z"/>
			<path fill="#7AFFD2" d="M103.181,330.112c1.487,4.717,0.322,9.433,4.798,14.153c-0.359,16.741-0.359,33.478,0,50.225
				c-0.865,0.912-1.731,1.818-2.615,2.734c-0.106,1.829,3.48,3.653,2.615,5.486c-6.856,2.179-17.448,1.306-25.754,0.449
				c-0.021-2.695,0.454-2.676,3.05-5.023c-1.021-1.059-2.034-2.127-3.05-3.186c0.366-17.061,0.366-34.102,0-51.147
				c4.358-4.099,3.772-8.216,3.934-12.327C91.835,329.436,97.505,332.15,103.181,330.112z"/>
		</g>
		<g>
			<path fill="#7AFFD2" d="M137.214,326.459c-2.652,0.96-5.252,0.919-8.732,0.919c-1.671,0-7.859,0.837-8.732,0
				c-3.212-3.076,3.975-28.683,8.732-31.046C135.208,306.375,136.533,316.426,137.214,326.459z"/>
			<path fill="#7AFFD2" d="M136.347,330.112c1.487,4.717,0.329,9.433,4.798,14.153c-0.37,16.741-0.37,33.478,0,50.225
				c-0.877,0.912-1.755,1.818-2.613,2.734c-0.108,1.829,3.46,3.653,2.613,5.486c-6.858,2.179-17.456,1.306-25.765,0.449
				c-0.02-2.695,0.46-2.676,3.057-5.023c-1.022-1.059-2.043-2.127-3.057-3.186c0.363-17.061,0.363-34.102,0-51.147
				c4.369-4.099,3.772-8.216,3.925-12.327C124.988,329.436,130.673,332.15,136.347,330.112z"/>
		</g>
	</g>
</g>
<g>
	<g>
		<g>
			<g>
				<path fill="#7AFFD2" d="M453.898,287.827c-17.011,5.873-45.604,1.854-53.338-9.628c-1.73,2.579-4.14,4.771-7.177,6.422
					c-11.438,6.226-36.579,8.106-48.967,2.241c-0.517-0.237-1.418-1.758-2.185-0.633c0.399,31.482,3.154,58.59,12.787,79.938
					c9.707,21.499,25.174,35.95,45.229,46.544c20.793-9.988,35.865-25.045,45.531-46.544c9.671-21.479,13.038-48.495,13.105-80.271
					C457.349,286.245,455.779,287.185,453.898,287.827z M354.09,301.637c17.354,1.716,35.076-0.627,46.163-7.386
					c0.103,0.057,0.209,0.105,0.312,0.16c0.029,28.132,0.313,79.34,0.313,104.826C369.355,383.095,355.648,348.614,354.09,301.637z"
					/>
			</g>
		</g>
	</g>
</g>
<g>
	<polygon fill="#7AFFD2" points="180.856,168.742 223.048,144.436 239.606,144.423 228.649,157.906 	"/>
	<polygon fill="#7AFFD2" points="141.557,115.5 203.659,92.818 225.813,96.66 208.011,112.144 	"/>
</g>
<g>
	<g>
		<path fill="#7AFFD2" d="M350.018,92.756c-3.326-15.173-69.141-25.744-69.141-25.744l3.621,8.633l-27.178,5.188
			c32.848,0.186,77.511,2.614,78.694,14.39c-1.185-11.775-45.847-14.204-78.696-14.39l-22.285,4.251l21.105,11.601l-30.531,12.921
			l-77.137,32.641l79.677-6.552l36.417-2.994l-12.116,20.482l23.862-7.376c0.002-0.001,0.004-0.002,0.006-0.004l8.088-2.499
			l15.137-4.679l1.029,8.879C300.57,147.506,353.182,107.152,350.018,92.756z M284.882,126.347
			c-4.983,1.196-18.33-26.476-6.995-35.609c0,0,14.908-3.913,26.203-2.543c15.781,1.912,24.72,9.686,24.72,9.686
			s-4.479,8.185-9.629,13.458C308.503,122.271,289.863,125.153,284.882,126.347z M308.515,125.475
			c13.807-9.68,24.568-19.14,27.013-26.531C333.083,106.334,322.322,115.795,308.515,125.475z M285.779,95.716
			c0,0-2.36,5.041-1.838,5.935c0.177,0.303,0.42,0.352,0.42,0.352s22.28-5.213,30.761-3.616c2.239,0.421,2.533,0.431,2.533,0.431
			S311.286,91.14,285.779,95.716z"/>
	</g>
</g>
</svg>
