<?xml version="1.0" encoding="utf-8"?>
<!-- Generator: Adobe Illustrator 12.0.0, SVG Export Plug-In . SVG Version: 6.00 Build 51448)  -->
<!DOCTYPE svg PUBLIC "-//W3C//DTD SVG 1.1//EN" "http://www.w3.org/Graphics/SVG/1.1/DTD/svg11.dtd" [
	<!ENTITY ns_svg "http://www.w3.org/2000/svg">
	<!ENTITY ns_xlink "http://www.w3.org/1999/xlink">
]>
<svg  version="1.1" id="Ebene_1" xmlns="&ns_svg;" xmlns:xlink="&ns_xlink;" width="500.961" height="450.814"
	 viewBox="0 0 500.961 450.814" overflow="visible" enable-background="new 0 0 500.961 450.814" xml:space="preserve">
<circle fill="none" stroke="#7AFFD2" stroke-width="3" cx="249.004" cy="278.885" r="170.429"/>
<g>
	<circle fill="#333333" cx="99.602" cy="344.916" r="99.602"/>
	<g>
		<g>
			<path fill="#7AFFD2" d="M109.423,290.644l-10.459,0.037l-0.021-6.188l10.459-0.039l-0.037-11.019l5.92-0.02l0.037,11.016
				l10.455-0.039l0.021,6.19l-10.455,0.039l0.035,10.876l-5.92,0.022L109.423,290.644z"/>
			<path fill="#7AFFD2" d="M141.018,290.526l-10.458,0.039l-0.021-6.19l10.458-0.039l-0.037-11.015l5.92-0.021l0.037,11.016
				l10.458-0.037l0.02,6.188l-10.455,0.039l0.037,10.877l-5.92,0.021L141.018,290.526z"/>
		</g>
		<g>
			<path fill="#7AFFD2" d="M70.903,326.459c-2.65,0.96-5.257,0.919-8.743,0.919c-1.66,0-7.855,0.837-8.732,0
				c-3.199-3.076,3.981-28.683,8.732-31.046C68.897,306.375,70.218,316.426,70.903,326.459z"/>
			<path fill="#7AFFD2" d="M70.026,330.112c1.487,4.717,0.329,9.433,4.792,14.154c-0.353,16.741-0.353,33.477,0,50.224
				c-0.86,0.912-1.742,1.819-2.603,2.735c-0.112,1.829,3.469,3.653,2.603,5.486c-6.839,2.179-17.439,1.306-25.754,0.449
				c-0.021-2.695,0.456-2.676,3.063-5.023c-1.02-1.059-2.047-2.127-3.063-3.186c0.359-17.06,0.359-34.101,0-51.147
				c4.364-4.099,3.774-8.216,3.934-12.327C58.667,329.436,64.35,332.15,70.026,330.112z"/>
		</g>
		<g>
			<path fill="#7AFFD2" d="M104.065,326.459c-2.656,0.96-5.265,0.919-8.752,0.919c-1.658,0-7.854,0.837-8.73,0
				c-3.199-3.076,3.975-28.683,8.73-31.046C102.057,306.375,103.378,316.426,104.065,326.459z"/>
			<path fill="#7AFFD2" d="M103.181,330.112c1.487,4.717,0.322,9.433,4.798,14.154c-0.359,16.741-0.359,33.477,0,50.224
				c-0.865,0.912-1.731,1.819-2.615,2.735c-0.106,1.829,3.48,3.653,2.615,5.486c-6.856,2.179-17.448,1.306-25.754,0.449
				c-0.021-2.695,0.454-2.676,3.05-5.023c-1.021-1.059-2.034-2.127-3.05-3.186c0.366-17.06,0.366-34.101,0-51.147
				c4.358-4.099,3.772-8.216,3.934-12.327C91.835,329.436,97.505,332.15,103.181,330.112z"/>
		</g>
		<g>
			<path fill="#7AFFD2" d="M137.214,326.459c-2.652,0.96-5.252,0.919-8.732,0.919c-1.671,0-7.859,0.837-8.732,0
				c-3.212-3.076,3.975-28.683,8.732-31.046C135.208,306.375,136.533,316.426,137.214,326.459z"/>
			<path fill="#7AFFD2" d="M136.347,330.112c1.487,4.717,0.329,9.433,4.798,14.154c-0.37,16.741-0.37,33.477,0,50.224
				c-0.877,0.912-1.755,1.819-2.613,2.735c-0.108,1.829,3.46,3.653,2.613,5.486c-6.858,2.179-17.456,1.306-25.765,0.449
				c-0.02-2.695,0.46-2.676,3.057-5.023c-1.022-1.059-2.043-2.127-3.057-3.186c0.363-17.06,0.363-34.101,0-51.147
				c4.369-4.099,3.772-8.216,3.925-12.327C124.988,329.436,130.673,332.15,136.347,330.112z"/>
		</g>
	</g>
</g>
<circle fill="#333333" cx="242.364" cy="118.416" r="118.415"/>
<g>
	<polygon fill="#7AFFD2" points="180.623,169.909 222.457,144.993 239.012,144.738 228.254,158.38 	"/>
	<polygon fill="#7AFFD2" points="140.553,117.244 202.32,93.662 224.527,97.181 206.952,112.923 	"/>
	<g>
		<path fill="#7AFFD2" d="M283.789,142.971l15.068-4.899l1.158,8.864c0,0,52.019-41.115,48.647-55.464
			c-3.547-15.123-69.507-24.735-69.507-24.735l3.746,8.58L255.8,80.899c32.849-0.291,77.542,1.487,78.896,13.245
			c1.437,12.446-29.982,33.914-58.963,51.446L283.789,142.971"/>
		<g>
			<path fill="#7AFFD2" d="M334.695,94.144c-1.354-11.757-46.047-13.536-78.896-13.245l-22.22,4.575l21.271,11.292l-30.34,13.364
				l-76.655,33.758l79.573-7.709l36.37-3.523l-11.818,20.657l23.754-7.723C304.713,128.058,336.132,106.59,334.695,94.144z"/>
		</g>
	</g>
	<g>
		<path fill="#333333" d="M281.364,95.212c0.862-0.248,1.729-0.495,2.596-0.742c-1.696,3.712-3.673,7.268-5.923,10.67
			c-0.514-1.592-0.075-2.66-0.004-3.925C279.425,99.368,280.534,97.369,281.364,95.212z"/>
		<path fill="#333333" d="M299.955,91.572c1.005,0.021,2.229-0.35,2.891,0.295c-0.408,1.954-2.035,3.231-2.443,5.186
			c-1.021,0.531-1.473,0.039-2.221,0.077C298.215,95.098,301.574,93.128,299.955,91.572z"/>
		<path fill="#333333" d="M285.223,104.767c0.691-0.199,1.383-0.397,2.072-0.593c-1.652,4.167-4.482,7.684-6.141,11.854
			c-1.098,0.41-0.764-1.772-1.264-2.443C282.064,110.864,283.052,107.486,285.223,104.767z"/>
		<path fill="#333333" d="M290.927,103.132c2.107-0.397,4.831-1.899,6.367-1.262c-3.383,7.281-7.937,13.912-11.321,21.191
			c-1.127-0.066-1.777-0.988-2.296-2.146c4.541-3.9,7.533-12.374,11.025-18.303C293.54,102.612,291.479,104.229,290.927,103.132z"/>
		<path fill="#333333" d="M304.184,100.459c1.34-0.847,1.551,0.345,2.74-0.224c-3.506,7.501-8.186,14.356-11.691,21.859
			c1.382-0.396,2.766-0.792,4.146-1.188c-2.354,1.607-8.553,3.383-11.402,3.265c1.23-0.683,2.825-0.361,4.146-1.188
			C296.911,119.984,301.473,103.424,304.184,100.459z"/>
		<path fill="#333333" d="M278.033,101.215c0.166-2.526-0.088-5.282,3.33-6.003C280.534,97.369,279.425,99.368,278.033,101.215z"/>
		<path fill="#333333" d="M318.927,106.893c1.037-3.058,3.257-5.46,4.29-8.521C324.293,100.868,320.489,104.413,318.927,106.893z"/>
		<path fill="#333333" d="M319.216,96.152c1.706,0.074,3.037,0.813,4.001,2.22c-1.033,3.061-3.253,5.463-4.29,8.521
			c-3.325,3.68-6.356,7.522-11.698,10.083C309.637,111.175,314.591,100.724,319.216,96.152z"/>
		<path fill="#333333" d="M311.659,93.269c1.76-0.289,2.722,0.861,4.224,1.034c0.032,0.469,0.342,0.43,0.668,0.37
			c-0.281,1.735-1.794,2.786-2.072,4.521c-1.306,0.782-1.338-0.732-2.371-0.444c-1.309,0.785-1.34-0.729-2.371-0.442
			C308.061,96.836,310.129,94.345,311.659,93.269z"/>
		<path fill="#333333" d="M306.254,92.012c2.127-0.17,3.803,0.482,5.405,1.257c-1.53,1.076-3.599,3.567-1.925,5.039
			c-1.424-0.314-2.851-0.621-4.221-1.036c2.455-0.671,2.403-2.734,3.258-4.297C308.324,91.948,306.701,93.04,306.254,92.012z"/>
		<path fill="#333333" d="M291.732,92.244c0.834-0.193,1.906-0.818,2.223-0.076c0.023,2.188-4.854,5.664-1.107,5.927
			c-2.676,0.988-6.738,1.204-7.479,3.264C287.686,98.428,290.896,95.994,291.732,92.244z"/>
		<path fill="#333333" d="M312.105,98.749c1.033-0.288,1.066,1.227,2.373,0.444c0.277-1.735,1.791-2.786,2.071-4.521
			c-0.325,0.061-0.636,0.1-0.668-0.37c1.269,0.332,2.38,0.951,3.333,1.849c-4.625,4.572-9.579,15.023-11.986,20.824
			c-0.737,1.044-2.178,1.699-3.851,2.226c0.343-4.65,10.341-14.705,10.36-18.674c0.002-0.711-1.854,0.262-1.854-0.592
			C313.221,99.579,312.407,99.368,312.105,98.749z"/>
		<path fill="#333333" d="M293.955,92.168c2.368-0.863,4.204-0.765,6-0.597c1.619,1.556-1.74,3.526-1.773,5.557
			c-2.16,1.012-3.175-0.047-5.334,0.966C289.104,97.833,293.979,94.357,293.955,92.168z"/>
		<path fill="#333333" d="M302.846,91.867c1.561-0.714,2.236,0.157,3.408,0.145c0.447,1.028,2.07-0.064,2.518,0.963
			c-0.854,1.563-0.801,3.626-3.256,4.297c-1.798,0.095-3.479-0.017-5.113-0.219C300.811,95.098,302.438,93.821,302.846,91.867z"/>
		<path fill="#333333" d="M285.367,101.359c0.18,1.26-0.01,2.319-0.145,3.408c-2.172,2.719-3.158,6.098-5.332,8.818
			c-0.695-2.857-2.14-6.131-1.854-8.444c2.25-3.402,4.227-6.958,5.923-10.67c2.59-0.742,5.181-1.487,7.772-2.226
			C290.896,95.994,287.686,98.428,285.367,101.359z"/>
		<path fill="#333333" d="M297.294,101.87c2.531-0.897,4.781-1.279,6.89-1.411c-2.711,2.965-7.271,19.525-12.062,22.525
			c-1.321,0.827-2.916,0.504-4.146,1.188c-0.643-0.415-1.959,0.386-2.004-1.11C289.357,115.782,293.911,109.151,297.294,101.87z"/>
		<path fill="#333333" d="M306.924,100.235c1.922-0.585,3.428-0.415,4.963-0.3c0,0.854,1.854-0.119,1.854,0.592
			c-0.02,3.97-10.02,14.024-10.36,18.674c-0.524,1.016-2.522,1.216-4.001,1.705c-1.381,0.396-2.765,0.792-4.146,1.188
			C298.738,114.591,303.418,107.736,306.924,100.235z"/>
		<path fill="#333333" d="M283.677,120.915c-0.995-1.354-2.017-2.654-2.522-4.887c1.658-4.17,4.488-7.687,6.142-11.854
			c1.211-0.347,2.421-0.693,3.632-1.041c0.553,1.096,2.613-0.521,3.775-0.521C291.21,108.542,288.218,117.015,283.677,120.915z"/>
	</g>
</g>
<g>
	<circle fill="#333333" cx="403.203" cy="336.8" r="97.758"/>
	<g>
		<g>
			<g>
				<path fill="#7AFFD2" d="M453.898,287.827c-17.01,5.873-45.604,1.854-53.338-9.628c-1.73,2.579-4.139,4.771-7.176,6.422
					c-11.439,6.226-36.58,8.106-48.967,2.241c-0.516-0.237-1.418-1.758-2.184-0.633c0.399,31.483,3.154,58.59,12.787,79.939
					c9.707,21.499,25.174,35.95,45.229,46.544c20.793-9.988,35.865-25.045,45.531-46.544c9.671-21.479,13.038-48.495,13.106-80.27
					C457.349,286.245,455.779,287.185,453.898,287.827z M354.09,301.637c17.354,1.716,35.076-0.627,46.163-7.386
					c0.103,0.057,0.209,0.105,0.312,0.16c0.029,28.132,0.312,79.34,0.312,104.826C369.355,383.095,355.648,348.614,354.09,301.637z"
					/>
			</g>
		</g>
	</g>
</g>
</svg>
