<?xml version="1.0" encoding="utf-8"?>
<!-- Generator: Adobe Illustrator 12.0.0, SVG Export Plug-In . SVG Version: 6.00 Build 51448)  -->
<!DOCTYPE svg PUBLIC "-//W3C//DTD SVG 1.1//EN" "http://www.w3.org/Graphics/SVG/1.1/DTD/svg11.dtd" [
	<!ENTITY ns_svg "http://www.w3.org/2000/svg">
	<!ENTITY ns_xlink "http://www.w3.org/1999/xlink">
]>
<svg  version="1.1" id="Ebene_1" xmlns="&ns_svg;" xmlns:xlink="&ns_xlink;" width="52.427" height="48.914"
	 viewBox="0 0 52.427 48.914" overflow="visible" enable-background="new 0 0 52.427 48.914" xml:space="preserve">
<g>
	<path fill="#00FFB1" d="M12.865,13.997c7.521-7.52,19.757-7.52,27.278,0c3.644,3.644,5.65,8.487,5.649,13.64
		c0,5.152-2.006,9.995-5.649,13.638c-7.521,7.52-19.757,7.52-27.278,0c-3.643-3.643-5.649-8.486-5.649-13.638
		C7.215,22.484,9.222,17.641,12.865,13.997z M11.451,42.688c8.3,8.3,21.805,8.3,30.106,0c4.021-4.02,6.235-9.366,6.235-15.052
		c0.001-5.687-2.214-11.033-6.235-15.054c-8.301-8.3-21.806-8.3-30.106,0C7.43,16.604,5.215,21.95,5.216,27.637
		C5.216,33.323,7.43,38.668,11.451,42.688z"/>
</g>
<g>
	<circle fill="#00FFB1" cx="7.506" cy="34.776" r="7.506"/>
</g>
<g>
	<circle fill="#00FFB1" cx="44.92" cy="37.419" r="7.507"/>
</g>
<g>
	<circle fill="#00FFB1" cx="28.326" cy="7.506" r="7.507"/>
</g>
</svg>
