<?xml version="1.0" encoding="utf-8"?>
<!-- Generator: Adobe Illustrator 12.0.0, SVG Export Plug-In . SVG Version: 6.00 Build 51448)  -->
<!DOCTYPE svg PUBLIC "-//W3C//DTD SVG 1.1//EN" "http://www.w3.org/Graphics/SVG/1.1/DTD/svg11.dtd" [
	<!ENTITY ns_svg "http://www.w3.org/2000/svg">
	<!ENTITY ns_xlink "http://www.w3.org/1999/xlink">
]>
<svg  version="1.1" id="Ebene_1" xmlns="&ns_svg;" xmlns:xlink="&ns_xlink;" width="17.06" height="70.979"
	 viewBox="0 0 17.06 70.979" overflow="visible" enable-background="new 0 0 17.06 70.979" xml:space="preserve">
<g>
	<path fill="#00FFB1" d="M14.384,19.846c-1.746,0.633-3.46,0.606-5.751,0.606c-1.102,0-5.177,0.551-5.753,0
		C0.764,18.425,5.498,1.557,8.632,0C13.063,6.616,13.936,13.237,14.384,19.846z"/>
	<path fill="#00FFB1" d="M13.813,22.253c0.979,3.106,0.216,6.213,3.16,9.324c-0.244,11.028-0.244,22.053,0,33.085
		c-0.578,0.601-1.155,1.198-1.722,1.802c-0.071,1.205,2.279,2.406,1.722,3.614C12.456,71.513,5.475,70.938,0,70.374
		c-0.013-1.775,0.303-1.763,2.015-3.309C1.341,66.367,0.669,65.663,0,64.966c0.24-11.238,0.24-22.464,0-33.693
		c2.878-2.7,2.485-5.412,2.586-8.12C6.331,21.807,10.075,23.595,13.813,22.253z"/>
</g>
</svg>
