<?xml version="1.0" encoding="utf-8"?>
<!-- Generator: Adobe Illustrator 12.0.0, SVG Export Plug-In . SVG Version: 6.00 Build 51448)  -->
<!DOCTYPE svg PUBLIC "-//W3C//DTD SVG 1.1//EN" "http://www.w3.org/Graphics/SVG/1.1/DTD/svg11.dtd" [
	<!ENTITY ns_svg "http://www.w3.org/2000/svg">
	<!ENTITY ns_xlink "http://www.w3.org/1999/xlink">
]>
<svg  version="1.1" id="Ebene_1" xmlns="&ns_svg;" xmlns:xlink="&ns_xlink;" width="229.143" height="186.457"
	 viewBox="0 0 229.143 186.457" overflow="visible" enable-background="new 0 0 229.143 186.457" xml:space="preserve">
<rect fill="#00FFB1" width="159.143" height="159.143"/>
<g>
	<g>
		<g>
			<path fill="#330A2A" d="M85.734,47.952l-6.444,0.024l-0.012-3.813l6.442-0.024l-0.022-6.789l3.647-0.012l0.021,6.787l6.442-0.024
				l0.013,3.813l-6.441,0.024l0.022,6.701l-3.647,0.012L85.734,47.952z"/>
			<path fill="#330A2A" d="M105.198,47.88l-6.441,0.024l-0.014-3.814l6.443-0.024l-0.023-6.786l3.648-0.014l0.022,6.788l6.442-0.024
				l0.013,3.813l-6.441,0.023l0.021,6.702l-3.646,0.014L105.198,47.88z"/>
		</g>
		<g>
			<path fill="#330A2A" d="M62.002,70.019c-1.633,0.591-3.238,0.565-5.386,0.565c-1.023,0-4.84,0.516-5.38,0
				c-1.972-1.896,2.452-17.671,5.38-19.127C60.766,57.644,61.58,63.836,62.002,70.019z"/>
			<path fill="#330A2A" d="M61.461,72.268c0.918,2.906,0.204,5.813,2.954,8.72c-0.219,10.314-0.219,20.625,0,30.942
				c-0.529,0.563-1.074,1.121-1.604,1.688c-0.068,1.127,2.137,2.25,1.604,3.379c-4.215,1.342-10.745,0.805-15.867,0.275
				c-0.014-1.658,0.279-1.646,1.887-3.094c-0.627-0.652-1.262-1.311-1.887-1.963c0.221-10.511,0.221-21.009,0-31.513
				c2.688-2.523,2.324-5.061,2.423-7.593C54.463,71.852,57.964,73.525,61.461,72.268z"/>
		</g>
		<g>
			<path fill="#330A2A" d="M82.433,70.019c-1.636,0.591-3.243,0.565-5.394,0.565c-1.021,0-4.837,0.516-5.376,0
				c-1.971-1.896,2.448-17.671,5.376-19.127C81.196,57.644,82.011,63.836,82.433,70.019z"/>
			<path fill="#330A2A" d="M81.889,72.268c0.915,2.906,0.198,5.813,2.955,8.72c-0.22,10.314-0.22,20.625,0,30.942
				c-0.533,0.563-1.065,1.121-1.61,1.688c-0.065,1.127,2.143,2.25,1.61,3.379c-4.224,1.342-10.749,0.805-15.866,0.275
				c-0.014-1.658,0.278-1.646,1.88-3.094c-0.632-0.652-1.253-1.311-1.88-1.963c0.226-10.511,0.226-21.009,0-31.513
				c2.686-2.523,2.325-5.061,2.423-7.593C74.898,71.852,78.392,73.525,81.889,72.268z"/>
		</g>
		<g>
			<path fill="#330A2A" d="M102.856,70.019c-1.635,0.591-3.236,0.565-5.38,0.565c-1.031,0-4.843,0.516-5.38,0
				c-1.979-1.896,2.449-17.671,5.38-19.127C101.62,57.644,102.436,63.836,102.856,70.019z"/>
			<path fill="#330A2A" d="M102.322,72.268c0.915,2.906,0.202,5.813,2.954,8.72c-0.228,10.314-0.228,20.625,0,30.942
				c-0.54,0.563-1.08,1.121-1.608,1.688c-0.067,1.127,2.132,2.25,1.608,3.379c-4.224,1.342-10.754,0.805-15.873,0.275
				c-0.012-1.658,0.284-1.646,1.885-3.094c-0.631-0.652-1.26-1.311-1.885-1.963c0.225-10.511,0.225-21.009,0-31.513
				c2.693-2.523,2.324-5.061,2.419-7.593C95.323,71.852,98.826,73.525,102.322,72.268z"/>
		</g>
	</g>
</g>
<rect x="227.643" y="185.457" fill="#00FFB1" width="1.5" height="1"/>
</svg>
