<?xml version="1.0" encoding="utf-8"?>
<!-- Generator: Adobe Illustrator 12.0.0, SVG Export Plug-In . SVG Version: 6.00 Build 51448)  -->
<!DOCTYPE svg PUBLIC "-//W3C//DTD SVG 1.1//EN" "http://www.w3.org/Graphics/SVG/1.1/DTD/svg11.dtd" [
	<!ENTITY ns_svg "http://www.w3.org/2000/svg">
	<!ENTITY ns_xlink "http://www.w3.org/1999/xlink">
]>
<svg  version="1.1" id="Ebene_1" xmlns="&ns_svg;" xmlns:xlink="&ns_xlink;" width="161.311" height="186.006"
	 viewBox="0 0 161.311 186.006" overflow="visible" enable-background="new 0 0 161.311 186.006" xml:space="preserve">
<g>
	<g>
		<g>
			<g>
				<path fill="#00FFB1" d="M154.41,13.313C130.889,21.435,91.349,15.877,80.653,0c-2.393,3.566-5.723,6.597-9.922,8.88
					c-15.819,8.609-50.584,11.21-67.712,3.1C2.307,11.651,1.059,9.549,0,11.104C0.552,54.64,4.362,92.123,17.683,121.646
					c13.422,29.729,34.81,49.712,62.543,64.36c28.753-13.812,49.595-34.632,62.961-64.36c13.373-29.702,18.029-67.06,18.124-110.998
					C159.181,11.126,157.011,12.425,154.41,13.313z M16.394,32.409c23.997,2.373,48.504-0.867,63.835-10.213
					c0.142,0.078,0.289,0.146,0.431,0.222c0.041,38.9,0.431,109.712,0.431,144.954C37.503,145.05,18.549,97.37,16.394,32.409z"/>
			</g>
		</g>
	</g>
</g>
</svg>
