<?xml version="1.0" encoding="utf-8"?>
<!-- Generator: Adobe Illustrator 12.0.0, SVG Export Plug-In . SVG Version: 6.00 Build 51448)  -->
<!DOCTYPE svg PUBLIC "-//W3C//DTD SVG 1.1//EN" "http://www.w3.org/Graphics/SVG/1.1/DTD/svg11.dtd" [
	<!ENTITY ns_svg "http://www.w3.org/2000/svg">
	<!ENTITY ns_xlink "http://www.w3.org/1999/xlink">
]>
<svg  version="1.1" id="Ebene_1" xmlns="&ns_svg;" xmlns:xlink="&ns_xlink;" width="76.425" height="85.521"
	 viewBox="0 0 76.425 85.521" overflow="visible" enable-background="new 0 0 76.425 85.521" xml:space="preserve">
<g>
	<g>
		<path fill-rule="evenodd" clip-rule="evenodd" fill="#330A2A" d="M75.655,61.809c-2.648,5.467-5.953,10.278-11.844,12.502
			c-1.861-1.649-3.908-3.109-5.266-5.264c-2.664,0.847-4.195,2.826-7.24,3.29c-0.09,2.724,4.234,1.032,3.293,4.606
			c-1.551,0.016-1.939-1.133-3.949-0.658c0.586,1.609,1.533,2.854,1.316,5.266c-3.275-0.645-1.736,3.53-4.607,3.29
			c-2.137-0.714-1.082-4.618-1.316-7.239c-1.623-0.087-3.172-0.1-3.947,0.658c0.023,2.828,3.496,2.207,2.631,5.923
			c-1.156,1.784-5.422,1.784-6.578,0c-0.43-2.842,1.135-3.688,1.973-5.265c-0.182-1.352-1.758-1.313-2.633-1.975
			c-3.904,1.029,2.133,7.914-2.633,7.897c-2.781-0.091-0.871-5.268-0.656-6.581c-5.824-1.184,0.627,5.856-3.291,6.581
			c-2.811-2.454-3.98-6.548-7.238-8.556c0-2.852,0-5.702,0-8.555c-4.227,0.379-4.736,4.478-7.896,5.923
			C8.896,71.537,3.354,68.085,0.638,61.809c1.43-2.516,4.199-3.697,6.58-5.265c-1.262-3.909-0.984-5.718-0.66-10.529
			c-1.102-1.162-2.203,0.584-4.605,0C-5.286,26.627,8.565,3.13,27.618,0.608c12.277-1.624,24.759-0.59,30.269,10.528
			c9.873,2.178,17.193,9.063,18.424,17.769c1.504,10.61-12.598,18.435-5.92,28.297C71.553,59.33,74.905,59.268,75.655,61.809z
			 M11.823,49.305c-1.313,10.504,12.049,10.627,15.795,3.949c2.689-0.277,2.658,2.165,5.92,1.316
			c2.65-2.998-0.139-7.503,0.66-12.504C26.202,41.064,12.772,41.713,11.823,49.305z M42.095,46.015
			c2.035,2.792,0.234,9.417,2.631,11.846c3.381,0.197,3.404-2.04,6.58-1.975c4.217,0.087,6.289,4.31,9.873,3.29
			c3.535-1.006,5-6.595,3.949-11.844C61.432,43.03,47.319,42.746,42.095,46.015z M36.829,70.363
			c0.807-2.701,0.092-6.929,1.318-9.213c1.75,1.977,0.762,6.695,2.631,8.555c2.252,0.277,1.977-1.971,3.289-2.633
			c0.41-7.209-6.314-7.281-4.605-15.793c-0.842-0.036-0.912-0.843-1.975-0.658C36.702,56.716,29.327,65.831,36.829,70.363z"/>
	</g>
</g>
</svg>
